<?xml version="1.0" ?><svg data-name="Layer 1" id="Layer_1" viewBox="0 0 64 64" xmlns="http://www.w3.org/2000/svg"><path d="M62.97,25.78c-.02-.07-.04-.14-.07-.21-.02-.03-.03-.07-.05-.1-.06-.09-.13-.18-.22-.25,0,0,0,0,0,0,0,0,0,0,0,0,0,0,0,0,0,0-.09-.07-.19-.12-.29-.16-.04-.01-.07-.02-.11-.03-.07-.02-.14-.03-.22-.03-.04,0-.08,0-.12,0-.07,0-.14,.02-.21,.04-.04,.01-.08,.02-.11,.04-.02,0-.04,.01-.06,.02L27.51,44.13c-.37,.21-.57,.63-.5,1.04,.07,.42,.4,.75,.82,.82l11.16,1.86v14.15c0,.45,.3,.85,.74,.97,.09,.02,.17,.03,.26,.03,.35,0,.68-.18,.86-.5l6.17-10.57,4.12,6.6c.21,.33,.58,.51,.98,.46,.39-.05,.71-.32,.83-.69l10-32s0-.04,0-.06c.01-.04,.01-.08,.02-.13,0-.07,0-.14,0-.21,0-.04,0-.08-.02-.12Zm-23.3,20.15l-8.69-1.45,24.63-13.77-15.94,15.21Zm12.02,9.69l-3.52-5.62,10.55-16.87-7.03,22.5Z"/><path d="M29.34,32.94c.32-.12,.56-.38,.63-.71L36.97,2.23s0-.01,0-.02c0-.03,0-.06,0-.09,0-.08,.01-.16,0-.24,0-.04-.01-.07-.02-.11-.02-.07-.04-.14-.07-.2-.02-.03-.03-.07-.05-.1-.04-.07-.1-.13-.16-.19-.02-.02-.03-.04-.04-.05,0,0-.01,0-.02,0,0,0,0-.01-.01-.02-.09-.06-.18-.11-.28-.14-.02,0-.05,0-.08-.02-.08-.02-.16-.03-.24-.03-.04,0-.07,0-.11,0-.07,0-.14,.02-.21,.05-.04,.01-.07,.02-.11,.04-.02,0-.04,.01-.06,.02L1.51,20.13c-.37,.21-.57,.63-.5,1.04,.07,.42,.4,.75,.82,.82l11.32,1.89,2.87,14.32c.09,.44,.47,.77,.92,.8,.02,0,.04,0,.06,0,.43,0,.81-.27,.95-.68l3.56-10.68,6.89,5.17c.27,.2,.62,.26,.94,.14Zm-15.67-11.01l-8.69-1.45L29.61,6.72l-15.94,15.21Zm8.66,3.82L33.66,7.63l-5.28,22.65-6.04-4.53Z"/></svg>